<?xml version="1.0" encoding="UTF-8"?><svg xmlns="http://www.w3.org/2000/svg" xmlns:xlink="http://www.w3.org/1999/xlink" fill-opacity="1" color-rendering="auto" color-interpolation="auto" text-rendering="auto" stroke="black" stroke-linecap="square" width="112" stroke-miterlimit="10" shape-rendering="auto" stroke-opacity="1" fill="black" stroke-dasharray="none" font-weight="normal" stroke-width="1" height="112" font-family="'Dialog'" font-style="normal" stroke-linejoin="miter" font-size="12px" stroke-dashoffset="0" image-rendering="auto">
  <!--Generated by ySVG 2.5-->
  <defs id="genericDefs"/>
  <g>
    <defs id="defs1">
      <clipPath clipPathUnits="userSpaceOnUse" id="clipPath1">
        <path d="M0 0 L112 0 L112 112 L0 112 L0 0 Z"/>
      </clipPath>
      <clipPath clipPathUnits="userSpaceOnUse" id="clipPath2">
        <path d="M113 129 L225 129 L225 241 L113 241 L113 129 Z"/>
      </clipPath>
    </defs>
    <g fill="white" text-rendering="geometricPrecision" shape-rendering="geometricPrecision" transform="translate(-113,-129)" stroke="white">
      <rect x="113" width="112" height="112" y="129" clip-path="url(#clipPath2)" stroke="none"/>
    </g>
    <g fill="rgb(255,204,0)" text-rendering="geometricPrecision" shape-rendering="geometricPrecision" transform="matrix(1,0,0,1,-113,-129)" stroke="rgb(255,204,0)">
      <rect x="128.6631" width="20.6738" height="30" y="144" clip-path="url(#clipPath2)" stroke="none"/>
    </g>
    <g text-rendering="geometricPrecision" stroke-miterlimit="1.45" shape-rendering="geometricPrecision" transform="matrix(1,0,0,1,-113,-129)" stroke-linecap="butt">
      <rect fill="none" x="128.6631" width="20.6738" height="30" y="144" clip-path="url(#clipPath2)"/>
      <text x="135.6631" xml:space="preserve" y="163.7139" clip-path="url(#clipPath2)" font-family="sans-serif" stroke="none">a</text>
    </g>
    <g fill="rgb(255,204,0)" text-rendering="geometricPrecision" shape-rendering="geometricPrecision" transform="matrix(1,0,0,1,-113,-129)" stroke="rgb(255,204,0)">
      <rect x="188.6631" width="20.6738" height="30" y="144" clip-path="url(#clipPath2)" stroke="none"/>
    </g>
    <g text-rendering="geometricPrecision" stroke-miterlimit="1.45" shape-rendering="geometricPrecision" transform="matrix(1,0,0,1,-113,-129)" stroke-linecap="butt">
      <rect fill="none" x="188.6631" width="20.6738" height="30" y="144" clip-path="url(#clipPath2)"/>
      <text x="195.6631" xml:space="preserve" y="163.7139" clip-path="url(#clipPath2)" font-family="sans-serif" stroke="none">b</text>
    </g>
    <g fill="rgb(255,204,0)" text-rendering="geometricPrecision" shape-rendering="geometricPrecision" transform="matrix(1,0,0,1,-113,-129)" stroke="rgb(255,204,0)">
      <rect x="137.6455" width="62.709" height="30" y="196" clip-path="url(#clipPath2)" stroke="none"/>
    </g>
    <g text-rendering="geometricPrecision" stroke-miterlimit="1.45" shape-rendering="geometricPrecision" transform="matrix(1,0,0,1,-113,-129)" stroke-linecap="butt">
      <rect fill="none" x="137.6455" width="62.709" height="30" y="196" clip-path="url(#clipPath2)"/>
      <text x="144.6455" xml:space="preserve" y="215.7139" clip-path="url(#clipPath2)" font-family="sans-serif" stroke="none">a_plus_b</text>
      <path fill="none" d="M160.3462 196 L151.6516 180.9295" clip-path="url(#clipPath2)"/>
      <path d="M147.6538 174 L149.3196 186.8928 L152.1514 181.7957 L157.9814 181.8956 Z" clip-path="url(#clipPath2)" stroke="none"/>
      <path fill="none" d="M177.6538 196 L186.3484 180.9295" clip-path="url(#clipPath2)"/>
      <path d="M190.3462 174 L180.0186 181.8956 L185.8486 181.7957 L188.6804 186.8928 Z" clip-path="url(#clipPath2)" stroke="none"/>
    </g>
  </g>
</svg>
