<?xml version="1.0" encoding="UTF-8"?><svg xmlns="http://www.w3.org/2000/svg" xmlns:xlink="http://www.w3.org/1999/xlink" fill-opacity="1" color-rendering="auto" color-interpolation="auto" text-rendering="auto" stroke="black" stroke-linecap="square" width="240" stroke-miterlimit="10" shape-rendering="auto" stroke-opacity="1" fill="black" stroke-dasharray="none" font-weight="normal" stroke-width="1" height="233" font-family="'Dialog'" font-style="normal" stroke-linejoin="miter" font-size="12px" stroke-dashoffset="0" image-rendering="auto">
  <!--Generated by ySVG 2.5-->
  <defs id="genericDefs"/>
  <g>
    <defs id="defs1">
      <clipPath clipPathUnits="userSpaceOnUse" id="clipPath1">
        <path d="M0 0 L240 0 L240 233 L0 233 L0 0 Z"/>
      </clipPath>
      <clipPath clipPathUnits="userSpaceOnUse" id="clipPath2">
        <path d="M159 179 L399 179 L399 412 L159 412 L159 179 Z"/>
      </clipPath>
    </defs>
    <g fill="white" text-rendering="geometricPrecision" shape-rendering="geometricPrecision" transform="translate(-159,-179)" stroke="white">
      <rect x="159" width="240" height="233" y="179" clip-path="url(#clipPath2)" stroke="none"/>
    </g>
    <g fill="rgb(255,204,0)" text-rendering="geometricPrecision" shape-rendering="geometricPrecision" transform="matrix(1,0,0,1,-159,-179)" stroke="rgb(255,204,0)">
      <rect x="174" width="30" height="30" y="194" clip-path="url(#clipPath2)" stroke="none"/>
    </g>
    <g text-rendering="geometricPrecision" stroke-miterlimit="1.45" shape-rendering="geometricPrecision" transform="matrix(1,0,0,1,-159,-179)" stroke-linecap="butt">
      <rect fill="none" x="174" width="30" height="30" y="194" clip-path="url(#clipPath2)"/>
      <text x="184.998" xml:space="preserve" y="213.7139" clip-path="url(#clipPath2)" font-family="sans-serif" stroke="none">A</text>
    </g>
    <g fill="rgb(255,204,0)" text-rendering="geometricPrecision" shape-rendering="geometricPrecision" transform="matrix(1,0,0,1,-159,-179)" stroke="rgb(255,204,0)">
      <rect x="234" width="30" height="30" y="194" clip-path="url(#clipPath2)" stroke="none"/>
    </g>
    <g text-rendering="geometricPrecision" stroke-miterlimit="1.45" shape-rendering="geometricPrecision" transform="matrix(1,0,0,1,-159,-179)" stroke-linecap="butt">
      <rect fill="none" x="234" width="30" height="30" y="194" clip-path="url(#clipPath2)"/>
      <text x="244.998" xml:space="preserve" y="213.7139" clip-path="url(#clipPath2)" font-family="sans-serif" stroke="none">B</text>
    </g>
    <g fill="rgb(255,204,0)" text-rendering="geometricPrecision" shape-rendering="geometricPrecision" transform="matrix(1,0,0,1,-159,-179)" stroke="rgb(255,204,0)">
      <rect x="204" width="30" height="30" y="254" clip-path="url(#clipPath2)" stroke="none"/>
    </g>
    <g text-rendering="geometricPrecision" stroke-miterlimit="1.45" shape-rendering="geometricPrecision" transform="matrix(1,0,0,1,-159,-179)" stroke-linecap="butt">
      <rect fill="none" x="204" width="30" height="30" y="254" clip-path="url(#clipPath2)"/>
      <text x="214.667" xml:space="preserve" y="273.7139" clip-path="url(#clipPath2)" font-family="sans-serif" stroke="none">C</text>
    </g>
    <g fill="rgb(255,204,0)" text-rendering="geometricPrecision" shape-rendering="geometricPrecision" transform="matrix(1,0,0,1,-159,-179)" stroke="rgb(255,204,0)">
      <rect x="294" width="30" height="30" y="194" clip-path="url(#clipPath2)" stroke="none"/>
    </g>
    <g text-rendering="geometricPrecision" stroke-miterlimit="1.45" shape-rendering="geometricPrecision" transform="matrix(1,0,0,1,-159,-179)" stroke-linecap="butt">
      <rect fill="none" x="294" width="30" height="30" y="194" clip-path="url(#clipPath2)"/>
      <text x="304.667" xml:space="preserve" y="213.7139" clip-path="url(#clipPath2)" font-family="sans-serif" stroke="none">D</text>
    </g>
    <g fill="rgb(255,204,0)" text-rendering="geometricPrecision" shape-rendering="geometricPrecision" transform="matrix(1,0,0,1,-159,-179)" stroke="rgb(255,204,0)">
      <rect x="354" width="30" height="30" y="194" clip-path="url(#clipPath2)" stroke="none"/>
    </g>
    <g text-rendering="geometricPrecision" stroke-miterlimit="1.45" shape-rendering="geometricPrecision" transform="matrix(1,0,0,1,-159,-179)" stroke-linecap="butt">
      <rect fill="none" x="354" width="30" height="30" y="194" clip-path="url(#clipPath2)"/>
      <text x="364.998" xml:space="preserve" y="213.7139" clip-path="url(#clipPath2)" font-family="sans-serif" stroke="none">E</text>
    </g>
    <g fill="rgb(255,204,0)" text-rendering="geometricPrecision" shape-rendering="geometricPrecision" transform="matrix(1,0,0,1,-159,-179)" stroke="rgb(255,204,0)">
      <rect x="264" width="30" height="30" y="254" clip-path="url(#clipPath2)" stroke="none"/>
    </g>
    <g text-rendering="geometricPrecision" stroke-miterlimit="1.45" shape-rendering="geometricPrecision" transform="matrix(1,0,0,1,-159,-179)" stroke-linecap="butt">
      <rect fill="none" x="264" width="30" height="30" y="254" clip-path="url(#clipPath2)"/>
      <text x="275.335" xml:space="preserve" y="273.7139" clip-path="url(#clipPath2)" font-family="sans-serif" stroke="none">F</text>
    </g>
    <g fill="rgb(255,204,0)" text-rendering="geometricPrecision" shape-rendering="geometricPrecision" transform="matrix(1,0,0,1,-159,-179)" stroke="rgb(255,204,0)">
      <rect x="264" width="30" height="30" y="314" clip-path="url(#clipPath2)" stroke="none"/>
    </g>
    <g text-rendering="geometricPrecision" stroke-miterlimit="1.45" shape-rendering="geometricPrecision" transform="matrix(1,0,0,1,-159,-179)" stroke-linecap="butt">
      <rect fill="none" x="264" width="30" height="30" y="314" clip-path="url(#clipPath2)"/>
      <text x="274.667" xml:space="preserve" y="333.7139" clip-path="url(#clipPath2)" font-family="sans-serif" stroke="none">H</text>
    </g>
    <g fill="rgb(255,204,0)" text-rendering="geometricPrecision" shape-rendering="geometricPrecision" transform="matrix(1,0,0,1,-159,-179)" stroke="rgb(255,204,0)">
      <rect x="354" width="30" height="30" y="314" clip-path="url(#clipPath2)" stroke="none"/>
    </g>
    <g text-rendering="geometricPrecision" stroke-miterlimit="1.45" shape-rendering="geometricPrecision" transform="matrix(1,0,0,1,-159,-179)" stroke-linecap="butt">
      <rect fill="none" x="354" width="30" height="30" y="314" clip-path="url(#clipPath2)"/>
      <text x="367.333" xml:space="preserve" y="333.7139" clip-path="url(#clipPath2)" font-family="sans-serif" stroke="none">I</text>
    </g>
    <g fill="rgb(255,204,0)" text-rendering="geometricPrecision" shape-rendering="geometricPrecision" transform="matrix(1,0,0,1,-159,-179)" stroke="rgb(255,204,0)">
      <rect x="354" width="30" height="30" y="254" clip-path="url(#clipPath2)" stroke="none"/>
    </g>
    <g text-rendering="geometricPrecision" stroke-miterlimit="1.45" shape-rendering="geometricPrecision" transform="matrix(1,0,0,1,-159,-179)" stroke-linecap="butt">
      <rect fill="none" x="354" width="30" height="30" y="254" clip-path="url(#clipPath2)"/>
      <text x="364.333" xml:space="preserve" y="273.7139" clip-path="url(#clipPath2)" font-family="sans-serif" stroke="none">G</text>
    </g>
    <g fill="rgb(255,204,0)" text-rendering="geometricPrecision" shape-rendering="geometricPrecision" transform="matrix(1,0,0,1,-159,-179)" stroke="rgb(255,204,0)">
      <rect x="174" width="30" height="30" y="367" clip-path="url(#clipPath2)" stroke="none"/>
    </g>
    <g text-rendering="geometricPrecision" stroke-miterlimit="1.45" shape-rendering="geometricPrecision" transform="matrix(1,0,0,1,-159,-179)" stroke-linecap="butt">
      <rect fill="none" x="174" width="30" height="30" y="367" clip-path="url(#clipPath2)"/>
      <text x="186" xml:space="preserve" y="386.7139" clip-path="url(#clipPath2)" font-family="sans-serif" stroke="none">J</text>
    </g>
    <g fill="rgb(255,204,0)" text-rendering="geometricPrecision" shape-rendering="geometricPrecision" transform="matrix(1,0,0,1,-159,-179)" stroke="rgb(255,204,0)">
      <rect x="264" width="30" height="30" y="367" clip-path="url(#clipPath2)" stroke="none"/>
    </g>
    <g text-rendering="geometricPrecision" stroke-miterlimit="1.45" shape-rendering="geometricPrecision" transform="matrix(1,0,0,1,-159,-179)" stroke-linecap="butt">
      <rect fill="none" x="264" width="30" height="30" y="367" clip-path="url(#clipPath2)"/>
      <text x="274.998" xml:space="preserve" y="386.7139" clip-path="url(#clipPath2)" font-family="sans-serif" stroke="none">K</text>
    </g>
    <g fill="rgb(255,204,0)" text-rendering="geometricPrecision" shape-rendering="geometricPrecision" transform="matrix(1,0,0,1,-159,-179)" stroke="rgb(255,204,0)">
      <rect x="354" width="30" height="30" y="367" clip-path="url(#clipPath2)" stroke="none"/>
    </g>
    <g text-rendering="geometricPrecision" stroke-miterlimit="1.45" shape-rendering="geometricPrecision" transform="matrix(1,0,0,1,-159,-179)" stroke-linecap="butt">
      <rect fill="none" x="354" width="30" height="30" y="367" clip-path="url(#clipPath2)"/>
      <text x="365.6631" xml:space="preserve" y="386.7139" clip-path="url(#clipPath2)" font-family="sans-serif" stroke="none">L</text>
      <path fill="none" d="M211.5 254 L200.0777 231.1554" clip-path="url(#clipPath2)"/>
      <path d="M196.5 224 L197.3944 236.9692 L200.5249 232.0498 L206.3387 232.4971 Z" clip-path="url(#clipPath2)" stroke="none"/>
      <path fill="none" d="M226.5 254 L237.9223 231.1554" clip-path="url(#clipPath2)"/>
      <path d="M241.5 224 L231.6613 232.4971 L237.4751 232.0498 L240.6056 236.9692 Z" clip-path="url(#clipPath2)" stroke="none"/>
      <path fill="none" d="M271.5 254 L260.0777 231.1554" clip-path="url(#clipPath2)"/>
      <path d="M256.5 224 L257.3944 236.9692 L260.5249 232.0498 L266.3387 232.4971 Z" clip-path="url(#clipPath2)" stroke="none"/>
      <path fill="none" d="M286.5 254 L297.9223 231.1554" clip-path="url(#clipPath2)"/>
      <path d="M301.5 224 L291.6613 232.4971 L297.4751 232.0498 L300.6056 236.9692 Z" clip-path="url(#clipPath2)" stroke="none"/>
      <path fill="none" d="M290.25 314 L352.95 230.4" clip-path="url(#clipPath2)"/>
      <path d="M357.75 224 L346.55 230.6 L352.35 231.2 L354.55 236.6 Z" clip-path="url(#clipPath2)" stroke="none"/>
      <path fill="none" d="M264 314 L239.6569 289.6569" clip-path="url(#clipPath2)"/>
      <path d="M234 284 L238.9498 296.0208 L240.364 290.364 L246.0208 288.9497 Z" clip-path="url(#clipPath2)" stroke="none"/>
      <path fill="none" d="M354 319 L300.6564 283.4376" clip-path="url(#clipPath2)"/>
      <path d="M294 279 L301.2111 289.8167 L301.4885 283.9923 L306.7581 281.4961 Z" clip-path="url(#clipPath2)" stroke="none"/>
      <path fill="none" d="M369 314 L369 292" clip-path="url(#clipPath2)"/>
      <path d="M369 284 L364 296 L369 293 L374 296 Z" clip-path="url(#clipPath2)" stroke="none"/>
      <path fill="none" d="M354 254 L329.6569 229.6569" clip-path="url(#clipPath2)"/>
      <path d="M324 224 L328.9497 236.0208 L330.364 230.364 L336.0208 228.9498 Z" clip-path="url(#clipPath2)" stroke="none"/>
      <path fill="none" d="M200.9469 367 L262.0691 290.2578" clip-path="url(#clipPath2)"/>
      <path d="M267.0531 284 L255.666 290.2716 L261.4461 291.04 L263.4881 296.5016 Z" clip-path="url(#clipPath2)" stroke="none"/>
      <path fill="none" d="M204 373.1667 L257.1065 341.8929" clip-path="url(#clipPath2)"/>
      <path d="M264 337.8333 L251.1226 339.6142 L256.2448 342.4003 L256.1969 348.231 Z" clip-path="url(#clipPath2)" stroke="none"/>
      <path fill="none" d="M279 367 L279 352" clip-path="url(#clipPath2)"/>
      <path d="M279 344 L274 356 L279 353 L284 356 Z" clip-path="url(#clipPath2)" stroke="none"/>
      <path fill="none" d="M369 367 L369 352" clip-path="url(#clipPath2)"/>
      <path d="M369 344 L364 356 L369 353 L374 356 Z" clip-path="url(#clipPath2)" stroke="none"/>
      <path fill="none" d="M354 382 L302 382" clip-path="url(#clipPath2)"/>
      <path d="M294 382 L306 387 L303 382 L306 377 Z" clip-path="url(#clipPath2)" stroke="none"/>
    </g>
  </g>
</svg>
