<?xml version="1.0" encoding="UTF-8"?><svg xmlns="http://www.w3.org/2000/svg" xmlns:xlink="http://www.w3.org/1999/xlink" fill-opacity="1" color-rendering="auto" color-interpolation="auto" text-rendering="auto" stroke="black" stroke-linecap="square" width="309" stroke-miterlimit="10" shape-rendering="auto" stroke-opacity="1" fill="black" stroke-dasharray="none" font-weight="normal" stroke-width="1" height="202" font-family="'Dialog'" font-style="normal" stroke-linejoin="miter" font-size="12px" stroke-dashoffset="0" image-rendering="auto">
  <!--Generated by ySVG 2.5-->
  <defs id="genericDefs"/>
  <g>
    <defs id="defs1">
      <clipPath clipPathUnits="userSpaceOnUse" id="clipPath1">
        <path d="M0 0 L309 0 L309 202 L0 202 L0 0 Z"/>
      </clipPath>
      <clipPath clipPathUnits="userSpaceOnUse" id="clipPath2">
        <path d="M96 148 L405 148 L405 350 L96 350 L96 148 Z"/>
      </clipPath>
    </defs>
    <g fill="white" text-rendering="geometricPrecision" shape-rendering="geometricPrecision" transform="translate(-96,-148)" stroke="white">
      <rect x="96" width="309" height="202" y="148" clip-path="url(#clipPath2)" stroke="none"/>
    </g>
    <g fill="rgb(255,204,0)" text-rendering="geometricPrecision" shape-rendering="geometricPrecision" transform="matrix(1,0,0,1,-96,-148)" stroke="rgb(255,204,0)">
      <rect x="340.5382" y="236.7522" clip-path="url(#clipPath2)" width="48.6641" rx="4" ry="4" height="30" stroke="none"/>
    </g>
    <g text-rendering="geometricPrecision" stroke-miterlimit="1.45" shape-rendering="geometricPrecision" transform="matrix(1,0,0,1,-96,-148)" stroke-linecap="butt">
      <rect x="340.5382" y="236.7522" clip-path="url(#clipPath2)" fill="none" width="48.6641" rx="4" ry="4" height="30"/>
      <text x="347.5382" y="256.4661" clip-path="url(#clipPath2)" font-family="sans-serif" stroke="none" font-weight="bold" xml:space="preserve">Model</text>
    </g>
    <g fill="rgb(255,204,0)" text-rendering="geometricPrecision" shape-rendering="geometricPrecision" transform="matrix(1,0,0,1,-96,-148)" stroke="rgb(255,204,0)">
      <rect x="207.2127" y="163.7522" clip-path="url(#clipPath2)" width="86.6855" rx="4" ry="4" height="30" stroke="none"/>
    </g>
    <g text-rendering="geometricPrecision" stroke-miterlimit="1.45" shape-rendering="geometricPrecision" transform="matrix(1,0,0,1,-96,-148)" stroke-linecap="butt">
      <rect x="207.2127" y="163.7522" clip-path="url(#clipPath2)" fill="none" width="86.6855" rx="4" ry="4" height="30"/>
      <text x="221.8884" y="183.4661" clip-path="url(#clipPath2)" font-family="sans-serif" stroke="none" font-weight="bold" xml:space="preserve">Controller</text>
    </g>
    <g fill="rgb(255,204,0)" text-rendering="geometricPrecision" shape-rendering="geometricPrecision" transform="matrix(1,0,0,1,-96,-148)" stroke="rgb(255,204,0)">
      <rect x="111.9086" y="236.7522" clip-path="url(#clipPath2)" width="48.6641" rx="4" ry="4" height="30" stroke="none"/>
    </g>
    <g text-rendering="geometricPrecision" stroke-miterlimit="1.45" shape-rendering="geometricPrecision" transform="matrix(1,0,0,1,-96,-148)" stroke-linecap="butt">
      <rect x="111.9086" y="236.7522" clip-path="url(#clipPath2)" fill="none" width="48.6641" rx="4" ry="4" height="30"/>
      <text x="122.5678" y="256.4661" clip-path="url(#clipPath2)" font-family="sans-serif" stroke="none" font-weight="bold" xml:space="preserve">View</text>
    </g>
    <g fill="rgb(255,204,0)" text-rendering="geometricPrecision" shape-rendering="geometricPrecision" transform="matrix(1,0,0,1,-96,-148)" stroke="rgb(255,204,0)">
      <rect x="207.2127" y="304.7044" clip-path="url(#clipPath2)" width="86.6855" rx="4" ry="4" height="30" stroke="none"/>
    </g>
    <g text-rendering="geometricPrecision" stroke-miterlimit="1.45" shape-rendering="geometricPrecision" transform="matrix(1,0,0,1,-96,-148)" stroke-linecap="butt">
      <rect x="207.2127" y="304.7044" clip-path="url(#clipPath2)" fill="none" width="86.6855" rx="4" ry="4" height="30"/>
      <text x="221.8884" y="324.4182" clip-path="url(#clipPath2)" font-family="sans-serif" stroke="none" font-weight="bold" xml:space="preserve">Controller</text>
      <path fill="none" d="M274.0268 193.7407 L333.9309 231.9947" stroke-width="3" clip-path="url(#clipPath2)"/>
      <path d="M342.359 237.3768 L333.0806 224.0361 L332.8773 231.3219 L326.353 234.5712 Z" stroke-width="3" clip-path="url(#clipPath2)" stroke="none"/>
      <path fill="none" d="M340.5616 251.7522 L170.5337 251.7522" stroke-width="3" clip-path="url(#clipPath2)"/>
      <path d="M160.5337 251.7522 L175.5337 258.0022 L171.7837 251.7522 L175.5337 245.5022 Z" stroke-width="3" clip-path="url(#clipPath2)" stroke="none"/>
      <path fill="none" d="M158.7631 237.3696 L218.619 199.1464" stroke-width="3" clip-path="url(#clipPath2)"/>
      <path d="M227.0471 193.7643 L211.0411 196.5699 L217.5655 199.8192 L217.7687 207.105 Z" stroke-width="3" clip-path="url(#clipPath2)" stroke="none"/>
      <path fill="none" d="M159.4329 265.5384 L216.7094 299.5853" stroke-width="3" clip-path="url(#clipPath2)"/>
      <path d="M225.3054 304.695 L215.605 291.658 L215.6349 298.9466 L209.2179 302.4029 Z" stroke-width="3" clip-path="url(#clipPath2)" stroke="none"/>
      <path fill="none" d="M275.813 304.6905 L333.075 270.6522" stroke-width="3" clip-path="url(#clipPath2)"/>
      <path d="M341.671 265.5425 L325.5835 267.8346 L332.0005 271.2909 L331.9706 278.5796 Z" stroke-width="3" clip-path="url(#clipPath2)" stroke="none"/>
    </g>
  </g>
</svg>
