<?xml version="1.0" encoding="UTF-8"?><svg xmlns="http://www.w3.org/2000/svg" xmlns:xlink="http://www.w3.org/1999/xlink" fill-opacity="1" color-rendering="auto" color-interpolation="auto" text-rendering="auto" stroke="black" stroke-linecap="square" width="308" stroke-miterlimit="10" shape-rendering="auto" stroke-opacity="1" fill="black" stroke-dasharray="none" font-weight="normal" stroke-width="1" height="149" font-family="'Dialog'" font-style="normal" stroke-linejoin="miter" font-size="12px" stroke-dashoffset="0" image-rendering="auto">
  <!--Generated by ySVG 2.5-->
  <defs id="genericDefs"/>
  <g>
    <defs id="defs1">
      <clipPath clipPathUnits="userSpaceOnUse" id="clipPath1">
        <path d="M0 0 L308 0 L308 149 L0 149 L0 0 Z"/>
      </clipPath>
      <clipPath clipPathUnits="userSpaceOnUse" id="clipPath2">
        <path d="M71 123 L379 123 L379 272 L71 272 L71 123 Z"/>
      </clipPath>
    </defs>
    <g fill="white" text-rendering="geometricPrecision" shape-rendering="geometricPrecision" transform="translate(-71,-123)" stroke="white">
      <rect x="71" width="308" height="149" y="123" clip-path="url(#clipPath2)" stroke="none"/>
    </g>
    <g fill="rgb(255,204,0)" text-rendering="geometricPrecision" shape-rendering="geometricPrecision" transform="matrix(1,0,0,1,-71,-123)" stroke="rgb(255,204,0)">
      <rect x="315.0839" y="211.3761" clip-path="url(#clipPath2)" width="48.6641" rx="4" ry="4" height="30" stroke="none"/>
    </g>
    <g text-rendering="geometricPrecision" stroke-miterlimit="1.45" shape-rendering="geometricPrecision" transform="matrix(1,0,0,1,-71,-123)" stroke-linecap="butt">
      <rect x="315.0839" y="211.3761" clip-path="url(#clipPath2)" fill="none" width="48.6641" rx="4" ry="4" height="30"/>
      <text x="322.0839" y="231.09" clip-path="url(#clipPath2)" font-family="sans-serif" stroke="none" font-weight="bold" xml:space="preserve">Model</text>
    </g>
    <g fill="rgb(255,204,0)" text-rendering="geometricPrecision" shape-rendering="geometricPrecision" transform="matrix(1,0,0,1,-71,-123)" stroke="rgb(255,204,0)">
      <rect x="181.7584" y="138.3761" clip-path="url(#clipPath2)" width="86.6855" rx="4" ry="4" height="30" stroke="none"/>
    </g>
    <g text-rendering="geometricPrecision" stroke-miterlimit="1.45" shape-rendering="geometricPrecision" transform="matrix(1,0,0,1,-71,-123)" stroke-linecap="butt">
      <rect x="181.7584" y="138.3761" clip-path="url(#clipPath2)" fill="none" width="86.6855" rx="4" ry="4" height="30"/>
      <text x="196.4341" y="158.09" clip-path="url(#clipPath2)" font-family="sans-serif" stroke="none" font-weight="bold" xml:space="preserve">Controller</text>
    </g>
    <g fill="rgb(255,204,0)" text-rendering="geometricPrecision" shape-rendering="geometricPrecision" transform="matrix(1,0,0,1,-71,-123)" stroke="rgb(255,204,0)">
      <rect x="86.4543" y="211.3761" clip-path="url(#clipPath2)" width="48.6641" rx="4" ry="4" height="30" stroke="none"/>
    </g>
    <g text-rendering="geometricPrecision" stroke-miterlimit="1.45" shape-rendering="geometricPrecision" transform="matrix(1,0,0,1,-71,-123)" stroke-linecap="butt">
      <rect x="86.4543" y="211.3761" clip-path="url(#clipPath2)" fill="none" width="48.6641" rx="4" ry="4" height="30"/>
      <text x="97.1135" y="231.09" clip-path="url(#clipPath2)" font-family="sans-serif" stroke="none" font-weight="bold" xml:space="preserve">View</text>
      <path fill="none" d="M248.5725 168.3646 L308.4766 206.6186" stroke-width="3" clip-path="url(#clipPath2)"/>
      <path d="M316.9047 212.0007 L307.6263 198.66 L307.4231 205.9458 L300.8987 209.1951 Z" stroke-width="3" clip-path="url(#clipPath2)" stroke="none"/>
      <path fill="none" d="M315.1073 226.3761 L145.0794 226.3761" stroke-width="3" clip-path="url(#clipPath2)"/>
      <path d="M135.0794 226.3761 L150.0794 232.6261 L146.3294 226.3761 L150.0794 220.1261 Z" stroke-width="3" clip-path="url(#clipPath2)" stroke="none"/>
      <path fill="none" stroke-dasharray="6,2" d="M181.7619 164.8446 L117.5109 206.9763" clip-path="url(#clipPath2)"/>
      <path stroke-dasharray="6,2" d="M110.821 211.3631 L123.5977 208.9641 L118.3472 206.4279 L118.1142 200.6016 Z" clip-path="url(#clipPath2)" stroke="none"/>
      <text x="98.0359" xml:space="preserve" y="172.6216" clip-path="url(#clipPath2)" font-family="sans-serif" stroke="none">observes</text>
      <path fill="none" d="M133.3088 211.9935 L193.1647 173.7703" stroke-width="3" clip-path="url(#clipPath2)"/>
      <path d="M201.5928 168.3882 L185.5868 171.1938 L192.1112 174.4431 L192.3144 181.7289 Z" stroke-width="3" clip-path="url(#clipPath2)" stroke="none"/>
      <path fill="none" stroke-dasharray="6,2" d="M135.097 237.9404 L307.0889 237.9404" clip-path="url(#clipPath2)"/>
      <path stroke-dasharray="6,2" d="M315.0889 237.9404 L303.0889 232.9404 L306.0889 237.9404 L303.0889 242.9404 Z" clip-path="url(#clipPath2)" stroke="none"/>
      <text x="194.6543" xml:space="preserve" y="251.7139" clip-path="url(#clipPath2)" font-family="sans-serif" stroke="none">observes</text>
    </g>
  </g>
</svg>
