<?xml version="1.0" encoding="UTF-8"?><svg xmlns="http://www.w3.org/2000/svg" xmlns:xlink="http://www.w3.org/1999/xlink" fill-opacity="1" color-rendering="auto" color-interpolation="auto" text-rendering="auto" stroke="black" stroke-linecap="square" width="270" stroke-miterlimit="10" shape-rendering="auto" stroke-opacity="1" fill="black" stroke-dasharray="none" font-weight="normal" stroke-width="1" height="162" font-family="'Dialog'" font-style="normal" stroke-linejoin="miter" font-size="12px" stroke-dashoffset="0" image-rendering="auto">
  <!--Generated by ySVG 2.5-->
  <defs id="genericDefs"/>
  <g>
    <defs id="defs1">
      <clipPath clipPathUnits="userSpaceOnUse" id="clipPath1">
        <path d="M0 0 L270 0 L270 162 L0 162 L0 0 Z"/>
      </clipPath>
      <clipPath clipPathUnits="userSpaceOnUse" id="clipPath2">
        <path d="M295 237 L565 237 L565 399 L295 399 L295 237 Z"/>
      </clipPath>
    </defs>
    <g fill="white" text-rendering="geometricPrecision" shape-rendering="geometricPrecision" transform="translate(-295,-237)" stroke="white">
      <rect x="295" width="270" height="162" y="237" clip-path="url(#clipPath2)" stroke="none"/>
    </g>
    <g fill="rgb(255,204,0)" text-rendering="geometricPrecision" shape-rendering="geometricPrecision" transform="matrix(1,0,0,1,-295,-237)" stroke="rgb(255,204,0)">
      <rect x="310.668" y="333" clip-path="url(#clipPath2)" width="48.6641" rx="4" ry="4" height="30" stroke="none"/>
    </g>
    <g text-rendering="geometricPrecision" stroke-miterlimit="1.45" shape-rendering="geometricPrecision" transform="matrix(1,0,0,1,-295,-237)" stroke-linecap="butt">
      <rect x="310.668" y="333" clip-path="url(#clipPath2)" fill="none" width="48.6641" rx="4" ry="4" height="30"/>
      <text x="317.668" y="352.7139" clip-path="url(#clipPath2)" font-family="sans-serif" stroke="none" font-weight="bold" xml:space="preserve">Model</text>
    </g>
    <g fill="rgb(255,204,0)" text-rendering="geometricPrecision" shape-rendering="geometricPrecision" transform="matrix(1,0,0,1,-295,-237)" stroke="rgb(255,204,0)">
      <rect x="406.002" y="258.508" clip-path="url(#clipPath2)" width="48.6641" rx="4" ry="4" height="30" stroke="none"/>
    </g>
    <g text-rendering="geometricPrecision" stroke-miterlimit="1.45" shape-rendering="geometricPrecision" transform="matrix(1,0,0,1,-295,-237)" stroke-linecap="butt">
      <rect x="406.002" y="258.508" clip-path="url(#clipPath2)" fill="none" width="48.6641" rx="4" ry="4" height="30"/>
      <text x="424.334" y="278.2219" clip-path="url(#clipPath2)" font-family="sans-serif" stroke="none" font-weight="bold" xml:space="preserve">UI</text>
    </g>
    <g fill="rgb(255,204,0)" text-rendering="geometricPrecision" shape-rendering="geometricPrecision" transform="matrix(1,0,0,1,-295,-237)" stroke="rgb(255,204,0)">
      <rect x="501.3359" y="333" clip-path="url(#clipPath2)" width="48.6641" rx="4" ry="4" height="30" stroke="none"/>
    </g>
    <g text-rendering="geometricPrecision" stroke-miterlimit="1.45" shape-rendering="geometricPrecision" transform="matrix(1,0,0,1,-295,-237)" stroke-linecap="butt">
      <rect x="501.3359" y="333" clip-path="url(#clipPath2)" fill="none" width="48.6641" rx="4" ry="4" height="30"/>
      <text x="509.3291" y="352.7139" clip-path="url(#clipPath2)" font-family="sans-serif" stroke="none" font-weight="bold" xml:space="preserve">Event</text>
      <circle stroke-linecap="square" clip-path="url(#clipPath2)" r="1.0736" cx="378.3902" cy="381.1509" stroke="none" stroke-miterlimit="10"/>
      <circle fill="none" r="1.0736" clip-path="url(#clipPath2)" cx="378.3902" cy="381.1509"/>
      <path fill="none" d="M335 332.9779 L335 273.5081 L395.9884 273.5081" stroke-width="3" clip-path="url(#clipPath2)"/>
      <path d="M405.9884 273.5081 L390.9884 267.2581 L394.7384 273.5081 L390.9884 279.7581 Z" stroke-width="3" clip-path="url(#clipPath2)" stroke="none"/>
      <text x="348.3991" font-size="14px" y="268.2463" clip-path="url(#clipPath2)" font-family="monospace" font-style="italic" stroke="none" xml:space="preserve">View</text>
      <path fill="none" d="M454.6795 273.5081 L525.668 273.5081 L525.668 322.9779" stroke-width="3" clip-path="url(#clipPath2)"/>
      <path d="M525.668 332.9779 L531.918 317.9779 L525.668 321.7279 L519.418 317.9779 Z" stroke-width="3" clip-path="url(#clipPath2)" stroke="none"/>
      <path fill="none" d="M525.668 362.9891 L525.668 381.1509 L379.4637 381.1509" stroke-width="3" clip-path="url(#clipPath2)"/>
      <text x="395.2592" font-size="14px" y="375.3228" clip-path="url(#clipPath2)" font-family="monospace" font-style="italic" stroke="none" xml:space="preserve">Update</text>
      <path fill="none" d="M359.3646 348 L378.3901 348 L378.3901 370.0773" stroke-width="3" clip-path="url(#clipPath2)"/>
      <path d="M378.3901 380.0773 L384.6401 365.0773 L378.3901 368.8273 L372.1401 365.0773 Z" stroke-width="3" clip-path="url(#clipPath2)" stroke="none"/>
      <path fill="none" d="M377.3166 381.1509 L335 381.1509 L335 372.9891" stroke-width="3" clip-path="url(#clipPath2)"/>
      <path d="M335 362.9891 L328.75 377.9891 L335 374.2391 L341.25 377.9891 Z" stroke-width="3" clip-path="url(#clipPath2)" stroke="none"/>
    </g>
  </g>
</svg>
