<?xml version="1.0" encoding="UTF-8"?><svg xmlns="http://www.w3.org/2000/svg" xmlns:xlink="http://www.w3.org/1999/xlink" fill-opacity="1" color-rendering="auto" color-interpolation="auto" text-rendering="auto" stroke="black" stroke-linecap="square" width="600" stroke-miterlimit="10" shape-rendering="auto" stroke-opacity="1" fill="black" stroke-dasharray="none" font-weight="normal" stroke-width="1" height="210" font-family="'Dialog'" font-style="normal" stroke-linejoin="miter" font-size="12px" stroke-dashoffset="0" image-rendering="auto">
  <!--Generated by ySVG 2.5-->
  <defs id="genericDefs"/>
  <g>
    <defs id="defs1">
      <clipPath clipPathUnits="userSpaceOnUse" id="clipPath1">
        <path d="M0 0 L600 0 L600 210 L0 210 L0 0 Z"/>
      </clipPath>
      <clipPath clipPathUnits="userSpaceOnUse" id="clipPath2">
        <path d="M149 69 L749 69 L749 279 L149 279 L149 69 Z"/>
      </clipPath>
    </defs>
    <g fill="white" text-rendering="geometricPrecision" shape-rendering="geometricPrecision" transform="translate(-149,-69)" stroke="white">
      <rect x="149" width="600" height="210" y="69" clip-path="url(#clipPath2)" stroke="none"/>
    </g>
    <g fill="rgb(255,255,153)" text-rendering="geometricPrecision" shape-rendering="geometricPrecision" transform="matrix(1,0,0,1,-149,-69)" stroke="rgb(255,255,153)">
      <rect x="164.9619" y="84" clip-path="url(#clipPath2)" width="92.0117" rx="4" ry="4" height="30" stroke="none"/>
    </g>
    <g text-rendering="geometricPrecision" stroke-miterlimit="1.45" shape-rendering="geometricPrecision" transform="matrix(1,0,0,1,-149,-69)" stroke-linecap="butt">
      <rect x="164.9619" y="84" clip-path="url(#clipPath2)" fill="none" width="92.0117" rx="4" ry="4" height="30"/>
      <text x="171.9619" y="103.7139" clip-path="url(#clipPath2)" font-family="sans-serif" stroke="none" font-weight="bold" xml:space="preserve">ModelFactory</text>
    </g>
    <g fill="rgb(255,255,153)" text-rendering="geometricPrecision" shape-rendering="geometricPrecision" transform="matrix(1,0,0,1,-149,-69)" stroke="rgb(255,255,153)">
      <rect x="286.9736" y="84" clip-path="url(#clipPath2)" width="140.0527" rx="4" ry="4" height="30" stroke="none"/>
    </g>
    <g text-rendering="geometricPrecision" stroke-miterlimit="1.45" shape-rendering="geometricPrecision" transform="matrix(1,0,0,1,-149,-69)" stroke-linecap="butt">
      <rect x="286.9736" y="84" clip-path="url(#clipPath2)" fill="none" width="140.0527" rx="4" ry="4" height="30"/>
      <text x="293.9736" y="103.7139" clip-path="url(#clipPath2)" font-family="sans-serif" stroke="none" font-weight="bold" xml:space="preserve">SortParameterFactory</text>
    </g>
    <g fill="rgb(255,255,153)" text-rendering="geometricPrecision" shape-rendering="geometricPrecision" transform="matrix(1,0,0,1,-149,-69)" stroke="rgb(255,255,153)">
      <rect x="457.0264" y="84" clip-path="url(#clipPath2)" width="156.0547" rx="4" ry="4" height="30" stroke="none"/>
    </g>
    <g text-rendering="geometricPrecision" stroke-miterlimit="1.45" shape-rendering="geometricPrecision" transform="matrix(1,0,0,1,-149,-69)" stroke-linecap="butt">
      <rect x="457.0264" y="84" clip-path="url(#clipPath2)" fill="none" width="156.0547" rx="4" ry="4" height="30"/>
      <text x="464.0264" y="103.7139" clip-path="url(#clipPath2)" font-family="sans-serif" stroke="none" font-weight="bold" xml:space="preserve">PagingParameterFactory</text>
    </g>
    <g fill="rgb(255,255,153)" text-rendering="geometricPrecision" shape-rendering="geometricPrecision" transform="matrix(1,0,0,1,-149,-69)" stroke="rgb(255,255,153)">
      <rect x="643.0811" y="84" clip-path="url(#clipPath2)" width="90.6875" rx="4" ry="4" height="30" stroke="none"/>
    </g>
    <g text-rendering="geometricPrecision" stroke-miterlimit="1.45" shape-rendering="geometricPrecision" transform="matrix(1,0,0,1,-149,-69)" stroke-linecap="butt">
      <rect x="643.0811" y="84" clip-path="url(#clipPath2)" fill="none" width="90.6875" rx="4" ry="4" height="30"/>
      <text x="650.0811" y="103.7139" clip-path="url(#clipPath2)" font-family="sans-serif" stroke="none" font-weight="bold" xml:space="preserve">EffectFactory</text>
    </g>
    <g fill="rgb(255,204,0)" text-rendering="geometricPrecision" shape-rendering="geometricPrecision" transform="matrix(1,0,0,1,-149,-69)" stroke="rgb(255,204,0)">
      <rect x="296.3252" y="159" clip-path="url(#clipPath2)" width="121.3496" rx="4" ry="4" height="30" stroke="none"/>
    </g>
    <g text-rendering="geometricPrecision" stroke-miterlimit="1.45" shape-rendering="geometricPrecision" transform="matrix(1,0,0,1,-149,-69)" stroke-linecap="butt">
      <rect x="296.3252" y="159" clip-path="url(#clipPath2)" fill="none" width="121.3496" rx="4" ry="4" height="30"/>
      <text x="303.3252" y="178.7139" clip-path="url(#clipPath2)" font-family="sans-serif" stroke="none" font-weight="bold" xml:space="preserve">QueryInputFactory</text>
    </g>
    <g fill="rgb(204,255,204)" text-rendering="geometricPrecision" shape-rendering="geometricPrecision" transform="matrix(1,0,0,1,-149,-69)" stroke="rgb(204,255,204)">
      <rect x="457.709" y="234" clip-path="url(#clipPath2)" width="154.6895" rx="4" ry="4" height="30" stroke="none"/>
    </g>
    <g text-rendering="geometricPrecision" stroke-miterlimit="1.45" shape-rendering="geometricPrecision" transform="matrix(1,0,0,1,-149,-69)" stroke-linecap="butt">
      <rect x="457.709" y="234" clip-path="url(#clipPath2)" fill="none" width="154.6895" rx="4" ry="4" height="30"/>
      <text x="464.709" y="253.7139" clip-path="url(#clipPath2)" font-family="sans-serif" stroke="none" font-weight="bold" xml:space="preserve">QueryWithResultFactory</text>
      <path fill="none" d="M240.1671 113.9963 L318.9249 154.4452" stroke-width="3" clip-path="url(#clipPath2)"/>
      <path d="M327.8203 159.0137 L317.3326 146.6013 L317.813 153.8741 L311.6219 157.7205 Z" stroke-width="3" clip-path="url(#clipPath2)" stroke="none"/>
      <path fill="none" d="M357 113.978 L357 149.0238" stroke-width="3" clip-path="url(#clipPath2)"/>
      <path d="M357 159.0238 L363.25 144.0238 L357 147.7738 L350.75 144.0238 Z" stroke-width="3" clip-path="url(#clipPath2)" stroke="none"/>
      <path fill="none" d="M499.4517 113.9963 L401.7939 155.1319" stroke-width="3" clip-path="url(#clipPath2)"/>
      <path d="M392.5782 159.0137 L408.828 158.9508 L402.9459 154.6466 L403.9757 147.431 Z" stroke-width="3" clip-path="url(#clipPath2)" stroke="none"/>
      <path fill="none" d="M392.6021 188.9963 L490.2598 230.1319" stroke-width="3" clip-path="url(#clipPath2)"/>
      <path d="M499.4756 234.0137 L488.078 222.431 L489.1078 229.6466 L483.2257 233.9508 Z" stroke-width="3" clip-path="url(#clipPath2)" stroke="none"/>
      <path fill="none" d="M673.0914 113.9963 L557.5367 227.0112" stroke-width="3" clip-path="url(#clipPath2)"/>
      <path d="M550.3875 234.0033 L565.4813 227.9834 L558.4304 226.1372 L556.7413 219.0469 Z" stroke-width="3" clip-path="url(#clipPath2)" stroke="none"/>
    </g>
  </g>
</svg>
