<?xml version="1.0" encoding="UTF-8"?><svg xmlns="http://www.w3.org/2000/svg" xmlns:xlink="http://www.w3.org/1999/xlink" fill-opacity="1" color-rendering="auto" color-interpolation="auto" text-rendering="auto" stroke="black" stroke-linecap="square" width="408" stroke-miterlimit="10" shape-rendering="auto" stroke-opacity="1" fill="black" stroke-dasharray="none" font-weight="normal" stroke-width="1" height="148" font-family="'Dialog'" font-style="normal" stroke-linejoin="miter" font-size="12px" stroke-dashoffset="0" image-rendering="auto">
  <!--Generated by ySVG 2.5-->
  <defs id="genericDefs"/>
  <g>
    <defs id="defs1">
      <clipPath clipPathUnits="userSpaceOnUse" id="clipPath1">
        <path d="M0 0 L408 0 L408 148 L0 148 L0 0 Z"/>
      </clipPath>
      <clipPath clipPathUnits="userSpaceOnUse" id="clipPath2">
        <path d="M-319 -290 L89 -290 L89 -142 L-319 -142 L-319 -290 Z"/>
      </clipPath>
    </defs>
    <g fill="white" text-rendering="geometricPrecision" shape-rendering="geometricPrecision" transform="translate(319,290)" stroke="white">
      <rect x="-319" width="408" height="148" y="-290" clip-path="url(#clipPath2)" stroke="none"/>
    </g>
    <g fill="rgb(255,204,0)" text-rendering="geometricPrecision" shape-rendering="geometricPrecision" transform="matrix(1,0,0,1,319,290)" stroke="rgb(255,204,0)">
      <rect x="-303.1543" y="-202.793" clip-path="url(#clipPath2)" width="157" rx="4" ry="4" height="45" stroke="none"/>
    </g>
    <g text-rendering="geometricPrecision" stroke-miterlimit="1.45" shape-rendering="geometricPrecision" transform="matrix(1,0,0,1,319,290)" stroke-linecap="butt">
      <rect x="-303.1543" y="-202.793" clip-path="url(#clipPath2)" fill="none" width="157" rx="4" ry="4" height="45"/>
      <text x="-265.4956" font-size="14px" y="-182.7178" clip-path="url(#clipPath2)" font-family="sans-serif" stroke="none" font-weight="bold" xml:space="preserve">Global State</text>
    </g>
    <g fill="rgb(255,204,0)" text-rendering="geometricPrecision" shape-rendering="geometricPrecision" transform="matrix(1,0,0,1,319,290)" stroke="rgb(255,204,0)">
      <rect x="-193.6172" y="-274.793" clip-path="url(#clipPath2)" width="157" rx="4" ry="4" height="30" stroke="none"/>
    </g>
    <g text-rendering="geometricPrecision" stroke-miterlimit="1.45" shape-rendering="geometricPrecision" transform="matrix(1,0,0,1,319,290)" stroke-linecap="butt">
      <rect x="-193.6172" y="-274.793" clip-path="url(#clipPath2)" fill="none" width="157" rx="4" ry="4" height="30"/>
      <text x="-174.2549" font-size="14px" y="-254.7178" clip-path="url(#clipPath2)" font-family="sans-serif" stroke="none" font-weight="bold" xml:space="preserve">State == Behavior</text>
    </g>
    <g fill="rgb(255,204,0)" text-rendering="geometricPrecision" shape-rendering="geometricPrecision" transform="matrix(1,0,0,1,319,290)" stroke="rgb(255,204,0)">
      <rect x="-83.3086" y="-202.793" clip-path="url(#clipPath2)" width="157" rx="4" ry="4" height="45" stroke="none"/>
    </g>
    <g text-rendering="geometricPrecision" stroke-miterlimit="1.45" shape-rendering="geometricPrecision" transform="matrix(1,0,0,1,319,290)" stroke-linecap="butt">
      <rect x="-83.3086" y="-202.793" clip-path="url(#clipPath2)" fill="none" width="157" rx="4" ry="4" height="45"/>
      <text x="-42.1533" font-size="14px" y="-182.7178" clip-path="url(#clipPath2)" font-family="sans-serif" stroke="none" font-weight="bold" xml:space="preserve">Local State</text>
      <text x="-72.874" font-size="14px" y="-165.5664" clip-path="url(#clipPath2)" font-family="sans-serif" stroke="none" font-weight="bold" xml:space="preserve">== Component State</text>
      <path fill="none" d="M-135.7891 -244.7897 L-185.5582 -208.6682" stroke-width="3" clip-path="url(#clipPath2)"/>
      <path d="M-193.6513 -202.7944 L-177.8405 -206.5469 L-184.5466 -209.4024 L-185.1828 -216.6633 Z" stroke-width="3" clip-path="url(#clipPath2)" stroke="none"/>
      <path fill="none" d="M-94.2997 -244.7897 L-44.1426 -208.6412" stroke-width="3" clip-path="url(#clipPath2)"/>
      <path d="M-36.03 -202.7944 L-44.5447 -216.635 L-45.1567 -209.3721 L-51.8532 -206.4942 Z" stroke-width="3" clip-path="url(#clipPath2)" stroke="none"/>
    </g>
  </g>
</svg>
