<?xml version="1.0" encoding="UTF-8"?><svg xmlns="http://www.w3.org/2000/svg" xmlns:xlink="http://www.w3.org/1999/xlink" fill-opacity="1" color-rendering="auto" color-interpolation="auto" text-rendering="auto" stroke="black" stroke-linecap="square" width="549" stroke-miterlimit="10" shape-rendering="auto" stroke-opacity="1" fill="black" stroke-dasharray="none" font-weight="normal" stroke-width="1" height="280" font-family="'Dialog'" font-style="normal" stroke-linejoin="miter" font-size="12px" stroke-dashoffset="0" image-rendering="auto">
  <!--Generated by ySVG 2.5-->
  <defs id="genericDefs"/>
  <g>
    <defs id="defs1">
      <clipPath clipPathUnits="userSpaceOnUse" id="clipPath1">
        <path d="M0 0 L549 0 L549 280 L0 280 L0 0 Z"/>
      </clipPath>
      <clipPath clipPathUnits="userSpaceOnUse" id="clipPath2">
        <path d="M-445 -290 L104 -290 L104 -10 L-445 -10 L-445 -290 Z"/>
      </clipPath>
    </defs>
    <g fill="white" text-rendering="geometricPrecision" shape-rendering="geometricPrecision" transform="translate(445,290)" stroke="white">
      <rect x="-445" width="549" height="280" y="-290" clip-path="url(#clipPath2)" stroke="none"/>
    </g>
    <g fill="rgb(255,204,0)" text-rendering="geometricPrecision" shape-rendering="geometricPrecision" transform="matrix(1,0,0,1,445,290)" stroke="rgb(255,204,0)">
      <rect x="-429.9893" y="-84.3965" clip-path="url(#clipPath2)" width="157" rx="4" ry="4" height="59" stroke="none"/>
    </g>
    <g text-rendering="geometricPrecision" stroke-miterlimit="1.45" shape-rendering="geometricPrecision" transform="matrix(1,0,0,1,445,290)" stroke-linecap="butt">
      <rect x="-429.9893" y="-84.3965" clip-path="url(#clipPath2)" fill="none" width="157" rx="4" ry="4" height="59"/>
      <text x="-414.6875" font-size="14px" y="-64.3213" clip-path="url(#clipPath2)" font-family="sans-serif" stroke="none" font-weight="bold" xml:space="preserve">Root State = Model</text>
      <text x="-423.9893" y="-48.7344" clip-path="url(#clipPath2)" font-family="sans-serif" font-style="italic" stroke="none" xml:space="preserve">only depends on</text>
      <text x="-423.9893" y="-34.0332" clip-path="url(#clipPath2)" font-family="sans-serif" font-style="italic" stroke="none" xml:space="preserve">events (actions, messages)</text>
    </g>
    <g fill="rgb(255,204,0)" text-rendering="geometricPrecision" shape-rendering="geometricPrecision" transform="matrix(1,0,0,1,445,290)" stroke="rgb(255,204,0)">
      <rect x="-321.1543" y="-185.793" clip-path="url(#clipPath2)" width="157" rx="4" ry="4" height="59" stroke="none"/>
    </g>
    <g text-rendering="geometricPrecision" stroke-miterlimit="1.45" shape-rendering="geometricPrecision" transform="matrix(1,0,0,1,445,290)" stroke-linecap="butt">
      <rect x="-321.1543" y="-185.793" clip-path="url(#clipPath2)" fill="none" width="157" rx="4" ry="4" height="59"/>
      <text x="-297.8853" font-size="14px" y="-165.7178" clip-path="url(#clipPath2)" font-family="sans-serif" stroke="none" font-weight="bold" xml:space="preserve">Dependent State</text>
      <text x="-315.1543" y="-150.1309" clip-path="url(#clipPath2)" font-family="sans-serif" font-style="italic" stroke="none" xml:space="preserve">depends on events</text>
      <text x="-315.1543" y="-135.4297" clip-path="url(#clipPath2)" font-family="sans-serif" font-style="italic" stroke="none" xml:space="preserve">and/or other state</text>
    </g>
    <g fill="rgb(255,204,0)" text-rendering="geometricPrecision" shape-rendering="geometricPrecision" transform="matrix(1,0,0,1,445,290)" stroke="rgb(255,204,0)">
      <rect x="-203.3086" y="-84.3965" clip-path="url(#clipPath2)" width="157" rx="4" ry="4" height="59" stroke="none"/>
    </g>
    <g text-rendering="geometricPrecision" stroke-miterlimit="1.45" shape-rendering="geometricPrecision" transform="matrix(1,0,0,1,445,290)" stroke-linecap="butt">
      <rect x="-203.3086" y="-84.3965" clip-path="url(#clipPath2)" fill="none" width="157" rx="4" ry="4" height="59"/>
      <text x="-169.5498" font-size="14px" y="-64.3213" clip-path="url(#clipPath2)" font-family="sans-serif" stroke="none" font-weight="bold" xml:space="preserve">Derived State</text>
      <text x="-197.3086" y="-48.7344" clip-path="url(#clipPath2)" font-family="sans-serif" font-style="italic" stroke="none" xml:space="preserve">only depends on other</text>
      <text x="-197.3086" y="-34.0332" clip-path="url(#clipPath2)" font-family="sans-serif" font-style="italic" stroke="none" xml:space="preserve">state (behaviors)</text>
    </g>
    <g fill="rgb(255,204,0)" text-rendering="geometricPrecision" shape-rendering="geometricPrecision" transform="matrix(1,0,0,1,445,290)" stroke="rgb(255,204,0)">
      <rect x="-193.6172" y="-274.793" clip-path="url(#clipPath2)" width="157" rx="4" ry="4" height="59" stroke="none"/>
    </g>
    <g text-rendering="geometricPrecision" stroke-miterlimit="1.45" shape-rendering="geometricPrecision" transform="matrix(1,0,0,1,445,290)" stroke-linecap="butt">
      <rect x="-193.6172" y="-274.793" clip-path="url(#clipPath2)" fill="none" width="157" rx="4" ry="4" height="59"/>
      <text x="-170.167" font-size="14px" y="-254.7178" clip-path="url(#clipPath2)" font-family="sans-serif" stroke="none" font-weight="bold" xml:space="preserve">State = Behavior</text>
      <text x="-187.6172" y="-239.1309" clip-path="url(#clipPath2)" font-family="sans-serif" font-style="italic" stroke="none" xml:space="preserve">properties with or</text>
      <text x="-187.6172" y="-224.4297" clip-path="url(#clipPath2)" font-family="sans-serif" font-style="italic" stroke="none" xml:space="preserve">without dependencies</text>
    </g>
    <g fill="rgb(255,204,0)" text-rendering="geometricPrecision" shape-rendering="geometricPrecision" transform="matrix(1,0,0,1,445,290)" stroke="rgb(255,204,0)">
      <rect x="-68.3086" y="-185.793" clip-path="url(#clipPath2)" width="157" rx="4" ry="4" height="59" stroke="none"/>
    </g>
    <g text-rendering="geometricPrecision" stroke-miterlimit="1.45" shape-rendering="geometricPrecision" transform="matrix(1,0,0,1,445,290)" stroke-linecap="butt">
      <rect x="-68.3086" y="-185.793" clip-path="url(#clipPath2)" fill="none" width="157" rx="4" ry="4" height="59"/>
      <text x="-24.0327" font-size="14px" y="-165.7178" clip-path="url(#clipPath2)" font-family="sans-serif" stroke="none" font-weight="bold" xml:space="preserve">Constants</text>
      <text x="-62.3086" y="-135.4297" clip-path="url(#clipPath2)" font-family="sans-serif" font-style="italic" stroke="none" xml:space="preserve">no dependencies</text>
      <path fill="none" d="M-274.3004 -126.8098 L-312.4942 -91.2263" stroke-width="3" clip-path="url(#clipPath2)"/>
      <path d="M-319.8109 -84.4097 L-304.5755 -90.0617 L-311.5797 -92.0784 L-313.0963 -99.2076 Z" stroke-width="3" clip-path="url(#clipPath2)" stroke="none"/>
      <path fill="none" d="M-208.3881 -126.8098 L-166.69 -90.9319" stroke-width="3" clip-path="url(#clipPath2)"/>
      <path d="M-159.1097 -84.4097 L-166.4037 -98.9307 L-167.6375 -91.7472 L-174.5565 -89.4554 Z" stroke-width="3" clip-path="url(#clipPath2)" stroke="none"/>
      <path fill="none" d="M-157.3701 -215.8074 L-192.1655 -191.5259" stroke-width="3" clip-path="url(#clipPath2)"/>
      <path d="M-200.3662 -185.8032 L-184.4885 -189.2618 L-191.1404 -192.2412 L-191.6419 -199.5126 Z" stroke-width="3" clip-path="url(#clipPath2)" stroke="none"/>
      <path fill="none" d="M-73.6026 -215.8074 L-39.5107 -191.5937" stroke-width="3" clip-path="url(#clipPath2)"/>
      <path d="M-31.3578 -185.8032 L-39.968 -199.5845 L-40.5298 -192.3175 L-47.2062 -189.3934 Z" stroke-width="3" clip-path="url(#clipPath2)" stroke="none"/>
    </g>
  </g>
</svg>
