<?xml version="1.0" encoding="UTF-8"?><svg xmlns="http://www.w3.org/2000/svg" xmlns:xlink="http://www.w3.org/1999/xlink" fill-opacity="1" color-rendering="auto" color-interpolation="auto" text-rendering="auto" stroke="black" stroke-linecap="square" width="459" stroke-miterlimit="10" shape-rendering="auto" stroke-opacity="1" fill="black" stroke-dasharray="none" font-weight="normal" stroke-width="1" height="385" font-family="'Dialog'" font-style="normal" stroke-linejoin="miter" font-size="12px" stroke-dashoffset="0" image-rendering="auto">
  <!--Generated by ySVG 2.5-->
  <defs id="genericDefs"/>
  <g>
    <defs id="defs1">
      <clipPath clipPathUnits="userSpaceOnUse" id="clipPath1">
        <path d="M0 0 L459 0 L459 385 L0 385 L0 0 Z"/>
      </clipPath>
      <clipPath clipPathUnits="userSpaceOnUse" id="clipPath2">
        <path d="M214 99 L673 99 L673 484 L214 484 L214 99 Z"/>
      </clipPath>
    </defs>
    <g fill="white" text-rendering="geometricPrecision" shape-rendering="geometricPrecision" transform="translate(-214,-99)" stroke="white">
      <rect x="214" width="459" height="385" y="99" clip-path="url(#clipPath2)" stroke="none"/>
    </g>
    <g fill="rgb(255,204,0)" text-rendering="geometricPrecision" shape-rendering="geometricPrecision" transform="matrix(1,0,0,1,-214,-99)" stroke="rgb(255,204,0)">
      <rect x="229.9932" y="174" clip-path="url(#clipPath2)" width="115.3965" rx="4" ry="4" height="30" stroke="none"/>
    </g>
    <g text-rendering="geometricPrecision" stroke-miterlimit="1.45" shape-rendering="geometricPrecision" transform="matrix(1,0,0,1,-214,-99)" stroke-linecap="butt">
      <rect x="229.9932" y="174" clip-path="url(#clipPath2)" fill="none" width="115.3965" rx="4" ry="4" height="30"/>
      <text x="234.6787" y="193.7139" clip-path="url(#clipPath2)" font-family="sans-serif" stroke="none" font-weight="bold" xml:space="preserve">State Management</text>
    </g>
    <g fill="rgb(255,204,0)" text-rendering="geometricPrecision" shape-rendering="geometricPrecision" transform="matrix(1,0,0,1,-214,-99)" stroke="rgb(255,204,0)">
      <rect x="520.9668" y="174" clip-path="url(#clipPath2)" width="132.0664" rx="4" ry="4" height="30" stroke="none"/>
    </g>
    <g text-rendering="geometricPrecision" stroke-miterlimit="1.45" shape-rendering="geometricPrecision" transform="matrix(1,0,0,1,-214,-99)" stroke-linecap="butt">
      <rect x="520.9668" y="174" clip-path="url(#clipPath2)" fill="none" width="132.0664" rx="4" ry="4" height="30"/>
      <text x="523.3115" y="193.7139" clip-path="url(#clipPath2)" font-family="sans-serif" stroke="none" font-weight="bold" xml:space="preserve">Explicit Dependencies</text>
    </g>
    <g fill="rgb(255,204,0)" text-rendering="geometricPrecision" shape-rendering="geometricPrecision" transform="matrix(1,0,0,1,-214,-99)" stroke="rgb(255,204,0)">
      <rect x="516.9736" y="379" clip-path="url(#clipPath2)" width="140.0527" rx="4" ry="4" height="30" stroke="none"/>
    </g>
    <g text-rendering="geometricPrecision" stroke-miterlimit="1.45" shape-rendering="geometricPrecision" transform="matrix(1,0,0,1,-214,-99)" stroke-linecap="butt">
      <rect x="516.9736" y="379" clip-path="url(#clipPath2)" fill="none" width="140.0527" rx="4" ry="4" height="30"/>
      <text x="518.9727" y="398.7139" clip-path="url(#clipPath2)" font-family="sans-serif" stroke="none" font-weight="bold" xml:space="preserve">Declarative Assignment</text>
    </g>
    <g fill="rgb(255,204,0)" text-rendering="geometricPrecision" shape-rendering="geometricPrecision" transform="matrix(1,0,0,1,-214,-99)" stroke="rgb(255,204,0)">
      <rect x="229.9932" y="379" clip-path="url(#clipPath2)" width="115.3965" rx="4" ry="4" height="30" stroke="none"/>
    </g>
    <g text-rendering="geometricPrecision" stroke-miterlimit="1.45" shape-rendering="geometricPrecision" transform="matrix(1,0,0,1,-214,-99)" stroke-linecap="butt">
      <rect x="229.9932" y="379" clip-path="url(#clipPath2)" fill="none" width="115.3965" rx="4" ry="4" height="30"/>
      <text x="252.3535" y="398.7139" clip-path="url(#clipPath2)" font-family="sans-serif" stroke="none" font-weight="bold" xml:space="preserve">Immutability</text>
    </g>
    <g fill="rgb(255,204,0)" text-rendering="geometricPrecision" shape-rendering="geometricPrecision" transform="matrix(1,0,0,1,-214,-99)" stroke="rgb(255,204,0)">
      <rect x="368.9775" y="276" clip-path="url(#clipPath2)" width="136.0449" rx="4" ry="4" height="30" stroke="none"/>
    </g>
    <g text-rendering="geometricPrecision" stroke-miterlimit="1.45" shape-rendering="geometricPrecision" transform="matrix(1,0,0,1,-214,-99)" stroke-linecap="butt">
      <rect x="368.9775" y="276" clip-path="url(#clipPath2)" fill="none" width="136.0449" rx="4" ry="4" height="30"/>
      <text x="371.6445" y="295.7139" clip-path="url(#clipPath2)" font-family="sans-serif" stroke="none" font-weight="bold" xml:space="preserve">Reactive Programming</text>
    </g>
    <g fill="rgb(255,204,0)" text-rendering="geometricPrecision" shape-rendering="geometricPrecision" transform="matrix(1,0,0,1,-214,-99)" stroke="rgb(255,204,0)">
      <rect x="366.9736" y="114" clip-path="url(#clipPath2)" width="140.0527" rx="4" ry="4" height="30" stroke="none"/>
    </g>
    <g text-rendering="geometricPrecision" stroke-miterlimit="1.45" shape-rendering="geometricPrecision" transform="matrix(1,0,0,1,-214,-99)" stroke-linecap="butt">
      <rect x="366.9736" y="114" clip-path="url(#clipPath2)" fill="none" width="140.0527" rx="4" ry="4" height="30"/>
      <text x="381.9893" y="133.7139" clip-path="url(#clipPath2)" font-family="sans-serif" stroke="none" font-weight="bold" xml:space="preserve">Effect Management</text>
    </g>
    <g fill="rgb(255,204,0)" text-rendering="geometricPrecision" shape-rendering="geometricPrecision" transform="matrix(1,0,0,1,-214,-99)" stroke="rgb(255,204,0)">
      <rect x="366.9736" y="439" clip-path="url(#clipPath2)" width="140.0527" rx="4" ry="4" height="30" stroke="none"/>
    </g>
    <g text-rendering="geometricPrecision" stroke-miterlimit="1.45" shape-rendering="geometricPrecision" transform="matrix(1,0,0,1,-214,-99)" stroke-linecap="butt">
      <rect x="366.9736" y="439" clip-path="url(#clipPath2)" fill="none" width="140.0527" rx="4" ry="4" height="30"/>
      <text x="378.3301" y="458.7139" clip-path="url(#clipPath2)" font-family="sans-serif" stroke="none" font-weight="bold" xml:space="preserve">Change Propagation</text>
      <path fill="none" d="M355.3828 189 L510.9623 189" stroke-width="3" clip-path="url(#clipPath2)"/>
      <path d="M345.3828 189 L360.3828 195.25 L356.6328 189 L360.3828 182.75 Z" stroke-width="3" clip-path="url(#clipPath2)" stroke="none"/>
      <path d="M520.9623 189 L505.9623 182.75 L509.7123 189 L505.9623 195.25 Z" stroke-width="3" clip-path="url(#clipPath2)" stroke="none"/>
      <path fill="none" d="M587 213.9896 L587 369.0163" stroke-width="3" clip-path="url(#clipPath2)"/>
      <path d="M587 203.9896 L580.75 218.9896 L587 215.2396 L593.25 218.9896 Z" stroke-width="3" clip-path="url(#clipPath2)" stroke="none"/>
      <path d="M587 379.0163 L593.25 364.0163 L587 367.7663 L580.75 364.0163 Z" stroke-width="3" clip-path="url(#clipPath2)" stroke="none"/>
      <path fill="none" d="M506.9592 394 L355.3722 394" stroke-width="3" clip-path="url(#clipPath2)"/>
      <path d="M516.9592 394 L501.9592 387.75 L505.7092 394 L501.9592 400.25 Z" stroke-width="3" clip-path="url(#clipPath2)" stroke="none"/>
      <path d="M345.3722 394 L360.3722 400.25 L356.6222 394 L360.3722 387.75 Z" stroke-width="3" clip-path="url(#clipPath2)" stroke="none"/>
      <path fill="none" d="M287.6914 369.0104 L287.6914 213.9837" stroke-width="3" clip-path="url(#clipPath2)"/>
      <path d="M287.6914 379.0104 L293.9414 364.0104 L287.6914 367.7604 L281.4414 364.0104 Z" stroke-width="3" clip-path="url(#clipPath2)" stroke="none"/>
      <path d="M287.6914 203.9837 L281.4414 218.9837 L287.6914 215.2337 L293.9414 218.9837 Z" stroke-width="3" clip-path="url(#clipPath2)" stroke="none"/>
      <path fill="none" d="M415.0193 275.9839 L317.9263 209.6549" stroke-width="3" clip-path="url(#clipPath2)"/>
      <path d="M309.6691 204.0141 L318.5293 217.6361 L318.9584 210.36 L325.5804 207.3147 Z" stroke-width="3" clip-path="url(#clipPath2)" stroke="none"/>
      <path fill="none" d="M458.8628 306.0125 L556.8892 373.3239" stroke-width="3" clip-path="url(#clipPath2)"/>
      <path d="M565.1328 378.9846 L556.3053 365.3413 L555.8588 372.6163 L549.2295 375.6458 Z" stroke-width="3" clip-path="url(#clipPath2)" stroke="none"/>
      <path fill="none" d="M415.238 306.0125 L317.6892 373.3062" stroke-width="3" clip-path="url(#clipPath2)"/>
      <path d="M309.4578 378.9846 L325.3539 375.6116 L318.7181 372.5964 L318.2559 365.3224 Z" stroke-width="3" clip-path="url(#clipPath2)" stroke="none"/>
      <path fill="none" d="M459.0825 275.9839 L556.6512 209.6372" stroke-width="3" clip-path="url(#clipPath2)"/>
      <path d="M564.9205 204.0141 L549.0021 207.2804 L555.6176 210.3401 L556.031 217.617 Z" stroke-width="3" clip-path="url(#clipPath2)" stroke="none"/>
      <path fill="none" d="M437 276.0103 L437 153.9666" stroke-width="3" clip-path="url(#clipPath2)"/>
      <path d="M437 143.9666 L430.75 158.9666 L437 155.2166 L443.25 158.9666 Z" stroke-width="3" clip-path="url(#clipPath2)" stroke="none"/>
      <path fill="none" d="M334.3338 170.2566 L390.4153 147.7202" stroke-width="3" clip-path="url(#clipPath2)"/>
      <path d="M325.055 173.9854 L341.3037 174.1916 L335.4937 169.7906 L336.6428 162.593 Z" stroke-width="3" clip-path="url(#clipPath2)" stroke="none"/>
      <path d="M399.6941 143.9915 L383.4454 143.7852 L389.2554 148.1862 L388.1063 155.3838 Z" stroke-width="3" clip-path="url(#clipPath2)" stroke="none"/>
      <path fill="none" d="M483.7481 147.6993 L540.2122 170.2849" stroke-width="3" clip-path="url(#clipPath2)"/>
      <path d="M474.4634 143.9854 L486.0693 155.3592 L484.9088 148.1635 L490.7117 143.7533 Z" stroke-width="3" clip-path="url(#clipPath2)" stroke="none"/>
      <path d="M549.4969 173.9988 L537.891 162.6249 L539.0516 169.8206 L533.2486 174.2309 Z" stroke-width="3" clip-path="url(#clipPath2)" stroke="none"/>
      <path fill="none" d="M437 306.0027 L437 429.0052" stroke-width="3" clip-path="url(#clipPath2)"/>
      <path d="M437 439.0052 L443.25 424.0052 L437 427.7552 L430.75 424.0052 Z" stroke-width="3" clip-path="url(#clipPath2)" stroke="none"/>
      <path fill="none" d="M334.2609 412.7141 L390.391 435.2701" stroke-width="3" clip-path="url(#clipPath2)"/>
      <path d="M324.9821 408.9854 L336.5699 420.3777 L335.4208 413.1802 L341.2308 408.7792 Z" stroke-width="3" clip-path="url(#clipPath2)" stroke="none"/>
      <path d="M399.6698 438.9988 L388.082 427.6064 L389.2311 434.804 L383.4211 439.205 Z" stroke-width="3" clip-path="url(#clipPath2)" stroke="none"/>
      <path fill="none" d="M483.8214 435.2715 L540.2366 412.7054" stroke-width="3" clip-path="url(#clipPath2)"/>
      <path d="M474.5366 438.9854 L490.785 439.2175 L484.982 434.8072 L486.1426 427.6115 Z" stroke-width="3" clip-path="url(#clipPath2)" stroke="none"/>
      <path d="M549.5214 408.9915 L533.273 408.7593 L539.076 413.1696 L537.9154 420.3653 Z" stroke-width="3" clip-path="url(#clipPath2)" stroke="none"/>
    </g>
  </g>
</svg>
